# xmcd
#
# Track frame offsets:
#	150
#	40768
#	71888
#	99593
#	129808
#	175420
#	212458
#	249380
#
# Disc length: 3797 seconds
#
# Revision: 0
# Processed by: cddbd v1.5.1PL2 Copyright (c) Steve Scherf et al.
# Submitted via: audiograbber 1.83.01
#
DISCID=680ed308
DTITLE=Eric Alexander - In Europe
DYEAR=1995
DGENRE=Jazz
TTITLE0=What A Difference A Day Made
TTITLE1=The Edge
TTITLE2=Stay On It
TTITLE3=To Be With You
TTITLE4=Trippin'
TTITLE5=Spank That Pig
TTITLE6=Good Morning Heartache
TTITLE7=That's All
EXTD=Eric Alexander - tenor sax\nBobby Broom - guitar\nMelvin Rhyne - organ\nJo
EXTD=e Farnsworth - drums\nrec. April 10, 1995
EXTT0=
EXTT1=
EXTT2=
EXTT3=
EXTT4=
EXTT5=
EXTT6=
EXTT7=
PLAYORDER=
